# xmcd
#
# Track frame offsets: 
#        150
#        14328
#        33930
#        52672
#        69300
#        79188
#        97276
#        113239
#        129126
#        140239
#        153066
#        170397
#        186039
#        201889
#        223354
#        238378
#        254884
#        271337
#        286033
#        302147
#        317012
#        330940
#
# Disc length: 4626 seconds
#
# Revision: 0
# Processed by: cddbd v1.5.2PL0 Copyright (c) Steve Scherf et al.
# Submitted via: ExactAudioCopy v0.99pb4
#
DISCID=3e121016
DTITLE=Horst Samson - Unplugged
DYEAR=2009
DGENRE=Blues
TTITLE0=In Amore Veritas
TTITLE1=Ballade für Fräulein Siebenschön
TTITLE2=Das ist die Nacht
TTITLE3=Frei wie der Wind
TTITLE4=Finisage
TTITLE5=Horizont
TTITLE6=Ich hab Dich X-Mal verflucht
TTITLE7=Irgendwo - Irgendwann
TTITLE8=Erbarmen
TTITLE9=Jede Kugel trifft
TTITLE10=Leben, das mit mir floh
TTITLE11=Memento mori
TTITLE12=Planet der Liebe
TTITLE13=Salto mortale
TTITLE14=Schlag zu, mein Herz
TTITLE15=Schranke
TTITLE16=Steppenwolf
TTITLE17=Sie war es nicht wert
TTITLE18=Bonus Track 1
TTITLE19=Bonus Track 2
TTITLE20=Bonus Track 3
TTITLE21=Da Capo Ich hab Dich X-Mal verflucht
EXTD=
EXTT0=
EXTT1=
EXTT2=
EXTT3=
EXTT4=
EXTT5=
EXTT6=
EXTT7=
EXTT8=
EXTT9=
EXTT10=
EXTT11=
EXTT12=
EXTT13=
EXTT14=
EXTT15=
EXTT16=
EXTT17=
EXTT18=
EXTT19=
EXTT20=
EXTT21=
PLAYORDER=
